<svg version="1.1" id="Layer_1" xmlns="http://www.w3.org/2000/svg" x="0" y="0" viewBox="0 0 917 625" xml:space="preserve"><style>.st3{fill:#ddf0f4}</style><path class="st3" d="M575.4 21.9l-4.6 4.6.1 6.8-10.7 5.4-2.9 5.5.3 6.6 3.5 2.2 1.2 17.8-7.2 6.5 4.2 8.7-6.2 8.9.8 4.1 10.5 6.8 1.1 10.3-3.8 3.8 3.1 7.1-5.7 5.7 3.5 4.8-2.2 6.3 5.6-.2 2.8-2.9 5.7 4h10l7.7 2.1 8.8-6.2 8.2 4.6 8.8-6.1 2.8 9.7 5.7 4.3-.6 5.7 7 5.6-1.7 8.1 10.3-1.1 8-4.1 5.1.4 8-7.4 5.1 1.8 4.6-6.7 6-2.1 5.3 1.3 3.2-3-3.6-4.9.5-3.9-7.8-1.2-2.4-12.7 2.8-9.8-9.6-16 2.8-3.8-2.6-2.9-7.2 2.9-2.1-12-8.4.2-7.9 3.3-8.3.6-.5-5.7-9.1-.2-5.9 3.2-4.2-3.8 3.6-6.8-7.9-5.2 4-4.6v-5.8l-8.2-8.7 5-6.1 9.7-1.7.6-4.7-16.3-15.8-.2-11.4L588.7.2l-11.3 8.3-2.7-6.6-3.3-.3-3.6 12.5zM192.5 49.7l3.6 3.1.1 6.3-3.4 1.9 1.4 2.8v8.5h11l3.6 9.3 8.6 4.9-1.9 4.8-5.9 2.9.9 3.3 5.4.1 2 7.3-5.9 2.4v6.3l-3.8 4-3.6 1.4.6 6.6-2.3 4.6-12.7-4.9-9 1.1-2.6 1.5.4 4-3.6-.6v4.5l-7.6.5-.7 4.1-1.4 2 2.6 1.7-.1 4.9-3.6 1.5-1.6 3.7.8 1.1 4-2.2 2.3 3.7-1.8 3.4-.4 6.9 3.6 6.1 7.2.6.6-5.1 3.4-4.3 5.5.9 8.7.5 7-6 5.8-1.8 10 1-.5 6.7.2.5 4 .5 4-6h4.9l4.3-3.1 6.8-7.9 8.1-8.4 5.1.5 5.2-3.3 4.8-.7 2.9-.3 1.3-5.9 3.3-5.5-3.4-6.3 1.6-3.9-2.2-3.5.3-8.4 8-4.6.9-5.9 3.9-6.2-1.3-5.4 4.3-3.1-.2-9.1 4.4 3.5 4.1-5.9 1.1-6.7-3.5.4-4.1-4.6-6 5.4-4.6-.7-.7-7.7-4.4-1.6v-5.6l-6.8-1.7-2.5 3.7h-5.8l-9.7-7.1-10.1.7-3.3-4.6-9.5.3-5.3-7.4-10.4.7-2.8-2.1-7.4 5.1-.1 4.9-6.4 7.8z"/><path class="st3" d="M290.8 75.4l-3.2-2.5.1 6.6-4.1 3.1 1.2 4.9-4 6.5-1 6.3-7.9 4.6-.3 7.1 2.4 3.8-1.6 3.9 3.5 6.4-3.7 6.1-1.2 5.9 3.8 8.9-3.9 4.7 8.2 9.1 5.5 5.1 4.2-3 2.6 9.8-.8 9.5-4.2 1.2-1.9 8.9 6.8 7.1 7 5.3 5.2-1.8 8.7.2 7.5-2.1 5 2.4 4.7-4.5 7.6 2.9 5.9-.6 5-4.9 7-.9 1.5 10.3-1.5 7 3.7 5.6h10.6l8-4.6 4.8.3-2.5-4.8v-7.4l11-4.3 5.3-5.7-3.5-3.9-1.3-5 3.6-4.7-1.1-9.1-2.8-5-1.4-6.7-8-2 4.1-9.9-2.3-6.3 5.7-5.5-.9-6.1-4.4-2.2 2.2-4.8-5.8-6.9 4.2-3.8-.3-6.8-9.9-5.1-.4-6.5 6.1-6.3-1.7-4.6-3.6-.5-5.2-7.4.7-8.5-3.5-5.3-3.6-.2-3.6 8.1h-7l-2.7 4.9-.6 9.5-6.8-7.4-.7-8.9-8.2-2.5-4.2 5.3-6.6-10.5-5.2 7-8.2 1.4-3.9-7.1-2.4 9.9-4.6 2.7-2.6-2.3z"/><path class="st3" d="M375.1 92.1l.3 5 9.9 5 .4 8.5-3.6 3.3 5.4 6.5-2 4.2 3.9 1.9 1 7.7-5.5 5.4 2.2 6-3.7 8.7 7.2 1.8 1.6 7.5 2.8 5 1.2 10-3.5 4.6.9 4 4.3 4.7-6.6 6.9-10.3 4v6l2.9 5.5 3.5 2.8-4.4 3.7 3.1 3.5-1.7 3.6 1.5 1.6-.2 4.1-3.4 3.6 11 9.4.2 4.6 6.4-.1 3.5-6.9 3.9-.1 6.9-6.3 3.4 5 3-.1 5.5 2.8 2.3-7.4 7.9.5 4.2-4.7 2.8 5.2 2.7-1.7 6.8 1.1 1.1-4.3 5.7-6.4 5.5-6.9-3.2-4.4 3.9-1.8-.7-12.7 4-7.3 9.2-2 9.9 5.2 5.6-4 5-8.5-.5-6.7 4.7-3.8 2-7.2 4.5-1 3.5-8.2-8.5-7 2.8-6.1-8.5-6.1-13.4 8.7-10.8.8-8.8-6.4 1.7-5.6-8.4-8-15 .8 1.5-7.1-5.3-5-3.7-6.3 1.6-10.3-8.3-11-5-3.7-3.1-11-4-3-13.4-.5-3.8 4.9-6.1-.9-.8-4.7-3.5.2-7.2 10.3-3.4-.6 1.7 4.7zM149.9 255.9l6.1.1 1.6 2.9 3.8 2.2 2.5 6 9.3-.4 9 6.7 1.3 8.1 5.4 2.2 7 6 6.4-3.7 4 3 3.7 6.6 8.4 1.9 1.9-1.8-7.6-11.4 1.2-10.7-1.9-4.8.5-10.7 2-7.3-2.1-8.8 3.5-6-1.3-9.4-3.2-10 6.5-6.7-.7-11.3-2.9-8.4.7-7.7 3.3-5.9 1.5-5.2-2.1-5.5.3-5.5-8.1-.9-5.3 1.7-7.1 6.2-9.5-.6-4.7-.7-2.6 3.2-1.2 10.3-1.7 7.3-7.8 4.3-7.8-.4-2.5 3 1.3 7.2-6.7.8-4 6.5-7.2 2-3.1 4.5 3.9 3.5 1.2 8.2 2.4 8.5-1.9 4.7-.4 3.8h6.2l1.2 3.4-5.2 3.6z"/><path class="st3" d="M281.7 251.9l4.7-3.7 6.2 4.8 4.5-1.9.5-5.6-1.6-10.4-5-9.5 2-3.5 1.6-5.7.6-3.4-2.2-3.5 4-3.9-6.7-5-7.4-7.8 2.2-10.6 4.1-1.2.6-8.1-2-7.5-3.4 2.4-6.4-6-9.1-10.1 4.2-5-3.4-7.7-2.9.3-4.5.7-5.4 3.4-4.9-.5-7.5 7.8-6.8 8.1-4.9 3.4h-4.6l-4.1 6.2-4-.6 1.3 3.5-1.7 5.9-3.2 5.7-.7 7.2 2.9 8.1.8 12.3-6.4 6.5 3 9.3 1.4 10-3.5 5.9 2.1 8.6-2 7.5-.6 10.2 1.9 4.9-1.2 10.5 7.5 11.2 5.6.3 1.9 6.8 1.5-.6.4-8.6 3.9.2 1.7 2.8 1.8-5.5 5.7.4 2.2 5.5 3.4-4.4 3.2.8.8 2.8 3.9-.2 2.6-3.2 4.1 3.2 3.2-4.7 5.5-9.6-.6-20.5 5-7.5zm150-162.3l8.1 10.9-1.6 10.4 3.3 5.6 5.8 5.4-1.3 6.1 13.7-.8 9.5 9.1-1.6 5.5 7.5 5.4 9.8-.7 13.9-9 10.5 7.4-2.9 6.2 8 6.6 3.7 1.5 4.3-4.2 4-3 6.5 4.1 9.6.6 5.8-2.8 10.4-9.7 2.2-6.5-3.8-5.2 5.9-5.9-3.1-7 4-4.1-1-8.8-10.4-6.8-1-5.4 6-8.7-4.3-8.9 7.5-6.7-1-16.3-3.6-2.2-.4-7.8 3.3-6.4 10.4-5.1-.2-6.5 4.1-4-7.3-7.4 3.8-13-8.6-.8-11.1 10.1-5.5-2.3-5.7 3.9-8.2-6.9-9 .3-1.7 17.1-10.1 5.2-7.3-1.4-3.8-2.5-25.4-1.3-6.1 7.4-3.4-5.3h-8.1l-1.5 6.2-10.5 10.2-3.6 13.3-4.1 1-1.9 6.1.2 5.7 3.1 2.6v7.6l3.4 2.3-1.4 8.5zm329.9 195.3l-5.3 3.4-1.6-6.8-2.7-.6-.9 3.9-5.6-.4-3.6-3.8-5.3 9.1-5.3.8-1.1-7.5-7-5.1-.5-6.4-7.6-2.8-1-8.4-4.6-2.6-7 5.6-8.3-4.2-9.7-.1-13.9-12.6-8.4.1-6.7.2-5.4.6-6.4 3.8-6.4 2.4-8.5 8.7-2 5.8 2.6 4.9-1.8 7.9-9.9-.3-8.3-2.6-2.7-.6-3.2 1.9-9-1-3 1.5 2.3 3.4 10.6 5.4-18.4 12.2 4.5 18.6-9.5 7.4-14.2 13.2-.6 6.9 3.1 3.8-1.1 11.1-4.9 4.7.5 2.6 3.8 4.6 4.9-.8 8.7 2.7 2.1 4 9.4-7.6 7.1 6.9 11.6-1.8 10-1.9 8.4 2.8 6.5-3.2 9.3-4 7.8 1.3 11.8-1.4 1.5-11.9-4.5-2.6.9-6.2-3.5-1-1.5-3.9 4.3-4.9-4-2.9 1.4-10.2 4.6 1.2 4.5-2.5 14.7-.1 5.1-1.7 5.6 3.3 8.5-6 7.6 5.2 7.3-3.8.9 4.1 4.8.6-.3 5.3 4.3 5.1-1.8 4.8 1.5 1.3 4.8-2.1 4.3 3.2 2.7-2.4h6.9l1.6-3.1 4.6-4.4-3.6-3.2 1.1-10 8.3-.6 1.5 3 5.1.1 1.2-4.8-2.3-3 2.6-1.8.2-6.3-5.8-3.3-.5-12.8 3.4-5.8z"/><path class="st3" d="M678.3 154.9l-5.1 1.8-4.9 7.3-5.4-2-7.7 7.3-.3-.1-1.1 3.7 1.8 3.3-5.4 5.2 2.1 1.7 1.2 4.7 7.4 1.2 1.8 3.2 6.6-1.4v8.4l4.9 6 3.5-.2 2.7-2.8 2.9 4-1.5 2.6 4 3.5-2.4 3.7 2.2 4.7-8-.1 2.1 3.7-1.8 5.9-5.7 5.9-7.4-1.7-1.6-1.7-1.9 2.6-1.3 5.6 2.6 4.1 8.6-.1 13.9 12.6 9.5.1 7.7 3.9 7.1-5.7 6.2 3.6.9 8.2 7.6 2.8.6 6.6 7 5.2.9 6.5 3-.4 6.1-10.2 4.5 4.8 3.7.2.8-3.5-.4-13.3 5.3 2.1 3.8-3.4h5.8l3 2.3 1.8-3.6 9.9-10 1.2-6.5 5.8-7.7 5.5 7 3.4-3.1 2.8 2.6.1 4.2 6.3 1.5 1.8 3.2 6.3-1.1 5.6-4 .3-5.4-.3-7.3-4.6-6-5.9-7.8-3.1-9.3 4-7-1.8-6.5 2.8-5.7-2.5-7.9 2.2-6.5.4-4.7-9.3-10.3-5.9-.8-9.4-10.4.8-8.7-6.9.3-2.3-8.4-7.4.9-.5 5.6-6.2 3.7-12.4-.8-8.7 7.8-.6 5.9-5.1.9-9-11.2-3 5.3-5-.6-7.4-11.4-12.2.5-10.1 11.4-1.9-2.5-3.6 3.4zM407.1 305.5l2.3 2 7.1-4.5 3.2 3.3 9.1-9.6 5.5 3.1 1.1-8.1 8-9.1 14.6 1.1 7.5 2.8 7-3.1 6.4 1.8 6.1-8-.3-6.6 9.7-1.6 7.1.5 2.8 5.6 6.7-6.6 5.2 3.1 1-7.2 5.1-5.6 9.6.4 7.2 7.9 11.2-4 .1-6.5-7.6-19.6 4-19.2-10.7-9-1-5.7-8.5-4 2-9.8-8.6-7.6-1.2-6.8-8.9-6.7-3.7.8-1.8 6.8-4.5 3.6.5 6.3-5.5 9.3-6.6 4.7-10.2-5.4-8 1.8-3.4 6.3.7 13.3-3.2 1.4 2.8 3.8-6.2 7.9-5.6 6.1-1.3 5.4-7.6-1.3-3.5 2.3-2.6-4.7-3.2 3.6-7.5-.5-2.5 8-6.7-3.5-3.5.2-2.9-4.2-6 5.4-3.5.1-3.5 6.9-7.3.2.1 2.6-7.1 5.2.5 3.7 3.5-1.2-.9 6.5 3.1.9 1.3 7.6 1.5 5.6 4.8.2.8 7.2 5.7.4-.2 7.2z"/><path class="st3" d="M496.8 342.3l8.1 6.6-1.9 8.6 10.5-.6 4.1 4.9 6-6.4 8.2 1.7 7.7 2.4 6.8-3 .3-6.9 1.9-8.1 5.1 2.1 6.9-6.6 5.4 1.7 14.1-13.1 8.8-6.9-4.5-18.7 17.1-11.4-8.6-4.3-3.6-5.3 5-2.3 8.9.9 2.1-1.2-8.2-6.4-8.5.1-10.6-2-1.9-8.6-9.4-3.1-14.8-.5.2.4-.2 7.9-13.1 4.7-7.5-8.2-8.2-.3-4.4 4.7-1.2 9-6.2-3.7-7.3 7.2-3.4-6.6-6-.5-8.2 1.4.3 5.8-7.1 9.3-6.9-2-7.1 3.2-7.9-3-13.6-1-7.1 8.2-1.4 9.8-6.4-3.6-9.3 9.9-3.5-3.5-6.5 4-5 6-4.6-3.4-3.5 3.7 8.6 6.3 2.1 4.8 2.4 4.9 9.5.2 1.5 1.7 4.2-3.7 10 .5 4.1 2.3 4.1-5 3.8-.3 2.6 4.8 6.4-2.7 5.2-5.2 7.5 1.2 4 8.9 8.3-1.7 5.2 1.4-.3 3.9 5.7-5 8.8.8-1.3 6.9z"/><path class="st3" d="M619.4 149.7l-2.3-8.1-7.8 5.4-8.2-4.6-8.6 6.1-8.2-2.3H574l-5-3.5-2.3 2.4-7.1.3-10.4 9.8-6.4 3.1-10.4-.7-5.9-3.8-3.1 2.4-4.9 4.8-4.1-1.7-3.4 7.8 9.2 6.9 1.3 6.9 8.7 7.9-1.8 9.4 8 3.9 1.1 5.9 11 9.2-4.1 19.7 6.8 17.5 15.7.5 10.4 3.4 1.9 8.5 9.4 1.8 8.9-.2 9.4 7.4 2.9.6 8.1 2.6 8.5.2 1.4-6.1-2.7-4.9 2.3-6.9 9.1-9.1 6.6-2.5 6.5-3.9 5.8-.7 5.4-.1-2.4-3.8 1.5-6.6 3.2-4.2 2.5 2.6 6.1 1.4 4.8-5 1.5-4.9-3-5.5 8.2.1-1.6-3.2 2.2-3.3-3.9-3.5 1.6-2.8-1.3-1.7-1.8 1.9-4.9.3-5.7-7.1v-7l-5.9 1.3-1.9-3.6-7.8-1.2-1.2-5.3-3.1-2.4 5.8-5.6-1.5-2.9 1.2-3.9-3.6-.2-7.8 4-12.7 1.3 1.9-9.2-6.9-5.5.5-5.7zm294.8 69.6c1.1-1.5 2.8-14.8 2.8-15.5s-1.2-8-2.8-9.7c-1.6-1.7-10.8-2.4-11.3-3.2-.5-.7-4.9-6.6-4.9-6.6l-11.3-3.5-3.7-1.2-6.7 3.5-8.5-11.5-7.7 8-8.5-5.3h-5.5l-4.8-5.8-8.9 1.5-8.3-1.9-1-5.6-4-.8-1 11.3-6.4 3.1-.4 4.8-2.1 6.2 2.6 8-2.9 5.7 1.8 6.5-3.9 7 2.8 8.4 5.7 7.6 4.9 6.4.3 7.9-.2 5.1 8 .9 5.3 7.1.7 9.1-1.1 8.5 3.5 9 6.4 2.7 3.3 6-2.5 4.5 1.7 1.6 7.5-1.1 4.5 9.6 7.7.4 1.6 7.7 9.6.4 2.8 3.1.7 6.7 4.3 3.2 2.2-1.5s7.9-4.3 8.6-5.5c.7-1.3 1.9-6.3 1.9-8.9 0-2.7-.7-5.3-1-10.1-.2-4.8-1.5-5.9-2.2-10.6-.7-4.6-.7-13.6-1.5-15-.7-1.5-2.2-7.6-2.2-7.6l1.5-8.2 13.8-7.5s7.3-18 8.4-20.6c1.4-2.9-.7-12.9.4-14.3zm-354.9 269l10.4-.5 3.2-4.7 2.6 4.1 6.2-7.8 2.3 9.5 6 .7 3.8 2.2 5.3-4.7 6.2-6.6 4-6.2 4.8 5 4.3-3.8 7.7 8.1 5.9-12.1 8 11.5 2.9-4.8 5.9 4.7 2.8 3.4-3.2 2.9 3.3 6.1 4.3-1.2 1.7-6.6-1.4-6.3 5.7-2.3 2.9 3.9-1.3 4.6v3.8l3.9 2.2 2.7-3.4.8-6.2-1.8-6.2 2.2-7.6 3.4 3.2 6.1-4.9-3-12.3-6.7-1.4-12.8-5.5 2.7-6.8-7.4-2.6 8.7-10.2-3.6-6.9-8.3-2.9.7-5.9-5.1-8.1v-9.6l-2.7-4-3.3 4.8-7.1-4.4v-8.3l-3.6-4.8-8.1-2.7-9.6 1.8-12.4 2-6.7-6.6-9.9 8-2.5-5.1-7.8-2.5-3.1.5 2.9 2.1.5 9.4-4.7.5 1.4 2.4 2.3 1.9.6 11.3-2.1 2.7-6.8 2.1-2.8 5.3 7.1 4 1.5 5.5-3.6.5v5.3L559 429v5.4l-9 1.6-2.7-5.1h-5l-2.3 3.5-7.3.9-.9 4.2-5.1-3.5-2.1 2.2-1.7 3.6-10 .9 1.4 3.7 8 6.3 7.4-1 .8 2.2 10.3 1.4-7.1 9.8-8.3-6-10.2-.7-13.5-.3-4.2-2.7-7.4 2.8 5.9 7.2 7.4-4 7.3 3.4 7.8-1.4 1.7 6.4-9.9 4-4.6-1.7-3.7 3.6 1 2.7 7.6.9 8.2-1 5.1 6.1 5-.5 4.1 8.4 8-.7 9.3-4.1zm-449-404.9l1.8 14.7 12.3 11-13.1 1.1 5.5 10.6 7.1 6.5 5.3-2.9 8.7 7.9-3.7 6.5 1.5 3.6 5.1-1.3 6.3 8 8.4-2 8.5 2 2.7-1.2.1-3-3.3-2.1 2.1-3 .9-4.9 7.3-.6v-4.7l3.5.5-.3-3.1 3.7-2 9.7-1.3 11.7 4.6 1.5-3-.6-7.3 4.3-1.7 3.2-3.4v-6.7l5.5-2.2-1.3-4.9-5.4-.1-1.5-5.7 6.5-3.1 1.2-3-8-4.6-3.4-8.8h-11.5v-9.6l-1.8-3.8 3.9-2.1-.2-4.8-3.4-3.1-.5-4.4 6.5-7.9.1-4.4-5.9-6.3-8.5 2.8-4.2-6.2-8 5.3-31.6-2.5-4.9 5.6.2 7.2-15 11.1-9.4-6.8-11.6.7-.2 4 6 12.5-6.3 8z"/><path class="st3" d="M490 451.3l2-.5 3-3.8 9.1 4.6 4.6-4.4-1.9-7.2 4.5-1.5 1 2.8 9.6-.9 1.4-3.1 3.1-3.3 4.4 3 .7-3.1 7.6-.9 2.3-3.6h6.9l2.5 4.9 6.7-1.1v-5.5l6.6-1.2v-5.3l3.2-.5-.9-3.2-7.8-4.4 3.7-7.1 7-2.2 1.4-1.9-.5-10.1-2-1.6-2.7-4.7 5.6-.6-.3-7.1-4-2.9-4.4-5.2-.8-3.8 5.1-4.9 1-9.9-3.1-3.8.7-7.2-4.4-1.4-7 6.7-4.3-1.8-1.4 6.3-.5 7.7-8.1 3.5-8.2-2.5-7.3-1.5-6.5 7.1-4.8-5.7-11.7.6 2.1-9.6-8.8-7.2 3.3-2.9.9-4.7-6.4-.6-8.1 7.2.5-6.4-3.7-1-9.1 1.8-4.1-9.2-6-1-4.8 4.9-8 3.4-2.8-5.2-2.1.2-4.6 5.4-4.8-2.7-9-.5-3.8 3.4 1.5 1.6-5.3 3 2.6 5.9 4 3-.9 8.9 5.8 4.4-1.3 10.3 7 1.8 7.4-1.5 1.9 2.8 2.7-3.7 7 9-2.3 7.7-.5 7.4 4 6 5.7 1.1 3.1-2.5 5.5 3.4-3.7 4.3 6.1 2.6 4.3 5.2-3 9.5-9-.2-2.5 1.9.5 3.3 8.1 6.4v7.5l-3.2 5.7h5.2l4 3.1 8.6-8.1 1.2-5.7 4.7 2.9-.6 4.8zm294.6-42.7l1.3-5.3-7.1-4.1-7.9-5.8 1.1-8.4 7.1-.5 1.3-5.6 5.4-1.7 1.2-7.2-7.3-2.1-6.9-5.6-9-.3-3.3-6.9-7.4-7.5-3.7-8-.8.7-1.9 3.7h-7.2l-3.2 2.9-4.6-3.5-4.9 2.2-3-2.7 1.8-4.9-4.1-4.9.3-4.5-4.5-.5-.7-3.2-6.3 3.3-7.5-5.2-8.5 6-5.8-3.5-4.7 1.6-14.5.1-4.7 2.6-3.5-.9-1.1 7.6 4.7 3.4-4.9 5.4.9 2.3 4.1 1.2-1 6.5 4.5 2.6-1.8 14-13.1 1.6-7.6-1.2-8.9 3.8-5.9 2.9 3.5 4.7v8l5.1 3.2 3.8-5.5 4.3 6.3v9.6l5.1 8.1-.6 5.3 7.7 2.7 4.3 8.3-7.9 9.3 6.8 2.3-2.8 7 11.3 4.8 7.6 1.6 3 12.5 4.5-3.7 2.7-6 2.8 6.6 3.6.9 14.2-14.8 13-13.7 14.4-1.6h4.2l3.5 4.6 8.4-10.6 7.3-2.6 5.8-2.7 5.5 3.5 3.3-6.8 4.2-2.8-.4-6.7z"/><path class="st3" d="M468.9 436.7l-7.9-6.3-.8-4.8 3.7-2.7 8.4.1 2.4-7.6-3.6-4.2-7.7-3.4 3.9-4.4-3-1.9-2.8 2.3-7-1.4-4.7-7 .6-8 2.1-7.2-5.3-6.7-2.7 3.7-2.6-3.7-6.7 1.4-8.7-2.3 1.4-10.7-5.8-4.4.9-8.9-3.6-2.7-3.3-7.6 4.8-2.7-2.3-2.6-9.8-.2-2.4-5.1-6.1 2.2-5.1-2.6-5.2 1.6-.8 7.1-10.4.6-2.4-3.4-4 3.7-7.7-.9-5.1-5-3.8.5-.3 6.2-7.1 4.3 5.2 7.4 5.6-6 5.8 6.1v8.2l2.7 6.7-3.6 8.8-3.9 8.5 9.6 5.1 6.8 13.6 4.3-6.4 5.3 3.8-1.3 4.6-1.5 10.9 3.5 5.4-3.1 7.2 8.7 5.7 7.4-.6 4.4 9.4-1.7 10.5 1.5 4.3-2.1 3.8 8.6 7.7-3.2 6-11.4-3.4-5.4-6.3-6.3 8.7-8.6-5.7-.4-4.2-12.5 11.5-2.2-6.6.5-8.6-7.5 2-5.3 5.3-1.4 13.3 7.4 5.6-5.9 7.3 1.1 8.2-11.9 3.1-1.3 10.7-8.4 3.4-5.5 6.9 2.8 7-1.8 7.5-11.5-1.6-5.2 1.9 3.8 5.5 2 7.9 11.6 5.4 11.4 2.4 2.1-13.4 5.1 3.4 1.8 6.3 17.9-13h13.3l9.4 5.4 1.7 10.9 3.2-6-1-9.1-6.2-4.6 2.8-3.6-4.8-3.9.5-10.4 2.9-10.1 6.1 4.2-.3 9.8 2.9 3.1.9-3.6-.8-6 6.7-1.2-.5-5.4 6.6-4.3 3 4.2 3.4-6.1 3.4 4.9 7.8-11.6 5.5-5-5.9-8.7-10.3-3.3-2.8-5.6.3-3.3 4.1-7.3 8.7 2.7 6 11.5 4 7.1 6.6-8.3-.6-8.1 7.5-3.6.5-11.1 8.9-1.9 8.2-5.7h1.4l3.4-6.1zM876 317.5l-10.2-.5-1.6-7.7-7.4-.4-4.5-9.4-7.1 1.1-3.1-3 2.6-4.7-2.6-4.8-6.6-2.8-3.8-9.9 1.1-8.8-.7-8.5-4.6-6.2-7.8-.9-6 4.3-7.7 1.3-2-3.5-6.8-1.7-.1-4.7-1.3-1.2-3.6 3.3-5.3-6.8-4.3 5.8-1.2 6.6-10.1 10.2-2.6 5.1-4-3.1H760l-4.1 3.6-4-1.6.3 10.8 3.8.8 1.3 5.6 4.5-2.8 3.3 3.3-3.7 6.4.4 11.5 5.8 3.3-.1 8-2 1.4 1.8 2.2-1.8 6.8-7.1-.2-1.5-2.9-6 .4-.9 8 4.3 3.8-3.7 3.5 3.7 8.2 7.5 7.5 3 6.3 8.5.3 7.2 5.7 8.2 2.5-1.6 9.3-5.4 1.8-1.4 5.8-7 .6-.8 6.2 7.2 5.2 7.9 4.7-1.7 7.1-5.1 2.1.3 4.7 9.1-6 4.8-1.7 3.5 2.7 8.6-15.8 5.1-1.8 2.6 2.9 5.7-.4 2.3-3.4 14.9-.2 2.7 5.4 2.7-8-2.9-6.8 6.1-6.1-6.9-2 4.8-8v-15.4l8.4-4.6 6.8-1 7.3-5.1 2.6-14.5 9.4-1-.7-6zM756.9 532.1l-15.8-1.3-5 12.1-6.5-4.1-3.1-4.2-5.9 7.5-8 3.9-8.2 6.1-11.8-5-6.3-1-6.5-7.1 5-7.2-4.3-7.8-8.9-3.1-2-3.6h-6.4v-7.2l-6.6-2.4-4.1-4.6-5.5-1.3-2.3-5.6-8.4-1.3-4 8.4-4.1-2.7-.5-7.5-2.7-1.8-4.1 5.7-10.1-9.3-5.3-5.3-6.4 6.8 3.5 7.6.7 3.5 6.9 1.9-3.8 6.7-5.2-1-1 4.6-8.5-1.1-6.8 7.9H578l-14.4 7-1.8 2.7-.3 5.5-9.6 1.9-9.5 8.5 1.4 6.5 5.9 2.1 3.2-1.4 3.9-3.9 10.6-.3 15.6 13.8 5.8.3 4.3-1.1 12.2 8.5 3.5 12.4-1.1 6.7-5.3 3-.3 3.4.8 7.2-5.5 5.3-2.3 4 3.3 3.7 8.8 1.3 3.8 5.7 8.8 2.7 1.7-5.1 3.9 4.5 7-2.1 8.5-7.3 5.8-5.8 6.7-13.6 16-8.2 7.5.5 4-4.9 7 5.7 2.1-2.4.8-6.2 4.3-2.4 2.4-3.5 5.1-1 2-8.1 7-6 6.8-.5 11 10.4 8.2-.4 3.9-6.1 9.5 3.9 6.3-4.2 5.1-1.7-4.8-8.2 3.2-9.9 3.4-4.2 7.5-.7-1.5-4.2z"/><path class="st3" d="M307.9 322.3l11.5 1.1 7.1 10.4 5.8-3.9 12.2 2.4 2.8 8 .2.4 6.5-3.9.3-6.7 5.9-.7 5.2 5.1 6.4.8 4.9-4.4 2.8 4.1 8.3-.5.8-6.7 6.7-2.2 5.1 2.6 5.3-1.9-1.6-3.7-9.7-7.1 5.6-5.9 4.6 3.4 3.7-4.5-2.7-2.3-.4-7.5.1-5.8-5.5-.4-.8-7.1-4.6-.2-1.8-6.8-1.1-6.7-3.5-1 .8-5.4-3 1-.8-6.4 7.2-5.3-.4-7.2-11.7-10.1 4.1-4.3.1-2.9-1.7-1.9 1.7-3.7-3.6-3.8 4.3-3.6-2-1.6-5.4-.2-8 4.6h-11.9l-4.4-6.9 1.5-7.3-1.2-8.6-5 .7-5 4.9-6.8.7-7-2.8-4.8 4.7-5.5-2.7-7.1 2-8.7-.2-5.1 1.8-3.6 3.6 1.8 2.9-.7 4-1.7 6-1.7 2.9 4.7 9 1.7 10.9-.6 6.6-6.1 2.7-6-4.7-4 3.1-3.9 1.2-4.4 6.6.5 20.4-5 8.9 4-.1 4.3 5.4 2.3 7.4 5.7 4.3 7-.8 8.1 9.7 6.9.4zm-188.1-4l.3-9.1-8.4-8.5-4.4 3-4.5-3.4-.3-11.4-6.4 2.7-7-6-3.4-8.1-6.4-4.8-6-.2-6.2-6.1-6.8-1.4-5.9-8.4-8.7-1.6-3.2-8.4-6.6-6.4-6-.5-1.5-3.2-2.5.2-1.7 8.6-10.5 8.2-2 13.9-2.6 3.7-6.1.8-3 5.6.6 8 6 .4 3.8 15 9.2.7 3.7 12.7 8.4-3.4 4.7 12.1h7.1l7.3-9.2 13.5 14 5.3-3.8 14.2 10 7.3-5.1 11.5 11.1 10.9-8.2 10.3 1.8 1.3-5.7.2-4.4z"/><path class="st3" d="M41.7 217.2l-5.3 11.4 6.7 7.3 1.1 10.8 2.6 6.9 8.4 1.6 6 8.4 6.7 1.4 5.3 5.3 2.1-7.7.3-10.1 4.8-5.1 5.5-8.3 5.3 1.6 7.2-2.3 9.7.4 8-1.6 6.4.6 1.5-2.3-4.5-2.4-.6-5.8 2.4-7.1 1.3-7.8 6.2-1.9 7.7 1.1 2.4 2.2 3.3-4.8 7.1-2 4.1-6.6 5.8-.8-1.1-6.3 3.4-4.1 8.2.4 6.8-3.7 1.5-6.5.5-4.1-7.9-.7-4.2-7.1.4-7.7 1.5-2.9-1-1.7-3.9 2.1-2.1-2.9 1.7-3.9-7.5-1.8-9 2.1-6.3-8-5.5 1.4-2.2-5.6 3.5-6-7-6.4-5.3 3-6.6-6.1.4 8.6-6.5 8.2-15 1-5.8 9.2-18.4 14.1L61 176.5l-18 15.8-7.7 10.6.9 6.2z"/><path class="st3" d="M140 338.7l1-10.4 8-9.3 8.5-8.2 8.6-8.4 6.8-1.8 1.8 1.8 4.1-4.4.3-5.9-2.6-6.1 5.5-4.3-1.2-7.5-8.1-6-9.8.4-2.7-6.4-3.8-2.2-1.4-2.5-6.1-.1-3.4-7.4 5.3-3.7-.4-1.2h-6.8l.5-5.7 1.8-4.5-2.2-8.1-1.2-7.7-6.7-6-6.9-1-4.9 1.5-1.2 6.9-2.4 7 .5 4.7 5.2 2.7-2.8 4.5-7.1-.7-8 1.6-9.6-.4-7.4 2.4-4.7-1.4-4.9 7.4-4.5 4.8-.3 9.7-2.2 8.2 5.2.2 7.2 5.4 3.4 8.1 6 5.1 7.6-3.2.3 12.9 3 2.3 4.6-3.1 9.7 9.9-.2 9 5.5 5.3-.3 5.2-1.4 6.2 13.4 17.7 4.1-9.5z"/><path class="st3" d="M272.9 291.8l-4.2.1-3.9 5.8-4.3-3.3-2 2.5-5.8.3-.9-3.1-1.4-.3-4.4 5.6-2.9-7-3.5-.3-2.5 7.5-3-4.9-1.5-.1-.4 8-4 1.6-2.1-7.3-4.5-.2-2.8 2.4-9.8-2.1-3.9-7-2.9-2.2-6.4 3.7-7.7-6.5-5.1-2.1-4.6 3.6 2.2 5.3-.2 6.8-5.7 5.9-2.2-2.2-5.6 1.4-8.3 8.2-8.5 8.2-7.7 8.8-.9 9.4 3 4-4.7 10.6h6.9l13.4-12.6h25.2l3.9-4.7 16 1.6 9.1-16 21.4-2 4.7-13 9.9 5.9 4.2-4.2 8.4 3.5 5.3-5.8 5.1 2.3 5.4-4.7-2.2-6.8z"/></svg>